<?xml version="1.0" encoding="UTF-8" standalone="no"?>
<svg
   xmlns:dc="http://purl.org/dc/elements/1.1/"
   xmlns:cc="http://creativecommons.org/ns#"
   xmlns:rdf="http://www.w3.org/1999/02/22-rdf-syntax-ns#"
   xmlns:svg="http://www.w3.org/2000/svg"
   xmlns="http://www.w3.org/2000/svg"
   viewBox="0 0 1566.4 398.02667"
   height="398.02667"
   width="1566.4"
   xml:space="preserve"
   id="svg2"
   version="1.1"><metadata
     id="metadata8"><rdf:RDF><cc:Work
         rdf:about=""><dc:format>image/svg+xml</dc:format><dc:type
           rdf:resource="http://purl.org/dc/dcmitype/StillImage" /></cc:Work></rdf:RDF></metadata><defs
     id="defs6" /><g
     transform="matrix(1.3333333,0,0,-1.3333333,0,398.02667)"
     id="g10"><g
       transform="scale(0.1)"
       id="g12"><path
         id="path14"
         style="fill:#ffffff;fill-opacity:1;fill-rule:nonzero;stroke:none"
         d="m 3218.98,1777.01 c 0,-156.3 55.55,-290.03 166.71,-401.16 111.14,-111.16 244.86,-166.72 401.16,-166.72 156.3,0 290.01,55.56 401.16,166.72 110.27,110.26 165.42,243.98 165.42,401.16 0,157.15 -55.15,290.87 -165.42,401.15 -111.15,111.14 -244.86,166.73 -401.16,166.73 -156.3,0 -290.02,-55.59 -401.16,-166.73 -111.16,-111.15 -166.71,-244.86 -166.71,-401.15 z m 0,-1273.83 c 0,-22.559 -7.82,-41.68 -23.45,-57.301 -15.63,-15.629 -34.74,-23.449 -57.31,-23.449 -22.59,0 -41.68,7.82 -57.31,23.449 -15.63,15.621 -23.44,34.742 -23.44,57.301 v 1273.83 c 0,201.43 71.19,373.36 213.61,515.78 142.39,142.39 314.32,213.6 515.77,213.6 201.44,0 373.37,-71.21 515.78,-213.6 142.4,-142.42 213.61,-314.35 213.61,-515.78 0,-201.46 -71.21,-373.39 -213.61,-515.78 -142.41,-142.42 -314.34,-213.61 -515.78,-213.61 -201.45,0 -373.38,71.19 -515.77,213.61 l -52.1,50.79 V 503.18" /><path
         id="path16"
         style="fill:#ffffff;fill-opacity:1;fill-rule:nonzero;stroke:none"
         d="m 4646.32,2445.42 c 0,22.57 7.82,41.68 23.45,57.31 15.63,15.63 34.72,23.44 57.31,23.44 22.57,0 41.68,-7.81 57.31,-23.44 15.63,-15.63 23.44,-34.74 23.44,-57.31 v -183.65 c 176.27,176.26 365.55,264.4 567.88,264.4 108.53,0 201.43,-16.93 278.73,-50.79 13.88,-5.22 26.47,-13.48 37.77,-24.75 14.76,-14.77 22.15,-33.87 22.15,-57.31 0,-22.59 -7.82,-41.68 -23.45,-57.31 -15.63,-15.62 -34.74,-23.44 -57.31,-23.44 -13.9,0 -26.05,2.61 -36.47,7.82 -60.79,29.5 -134.6,44.28 -221.42,44.28 -156.3,0 -290.03,-55.59 -401.16,-166.72 -111.16,-110.28 -166.72,-244 -166.72,-401.16 v -648.63 c 0,-22.6 -7.81,-41.68 -23.44,-57.31 -15.63,-15.63 -34.74,-23.45 -57.31,-23.45 -22.59,0 -41.68,7.82 -57.31,23.45 -15.63,15.63 -23.45,34.71 -23.45,57.31 v 1297.26" /><path
         id="path18"
         style="fill:#ffffff;fill-opacity:1;fill-rule:nonzero;stroke:none"
         d="m 6368.22,2353.82 c -156.3,0 -290.03,-55.58 -401.16,-166.72 -111.16,-111.15 -166.72,-244.86 -166.72,-401.15 0,-156.31 55.56,-290.04 166.72,-401.16 111.13,-111.17 244.86,-166.73 401.16,-166.73 156.3,0 290.01,55.56 401.16,166.73 110.26,110.25 165.42,243.98 165.42,401.16 0,157.15 -55.16,290.87 -165.42,401.15 -111.15,111.14 -244.86,166.72 -401.16,166.72 z m 729.38,-567.87 c 0,-201.47 -71.2,-373.39 -213.6,-515.79 -142.42,-142.42 -314.34,-213.6 -515.78,-213.6 -201.46,0 -373.38,71.18 -515.78,213.6 -142.41,142.4 -213.61,314.32 -213.61,515.79 0,201.43 71.2,373.36 213.61,515.77 142.4,142.4 314.32,213.61 515.78,213.61 201.44,0 373.36,-71.21 515.78,-213.61 142.4,-142.41 213.6,-314.34 213.6,-515.77" /><path
         id="path20"
         style="fill:#ffffff;fill-opacity:1;fill-rule:nonzero;stroke:none"
         d="m 8534.67,2501.26 c -27.49,23.87 -61.94,36.49 -99.61,36.49 -37.75,0 -72.46,-12.86 -100.36,-37.19 l -1.22,-1.09 c -11.2,-10.32 -20.29,-21.84 -27,-34.24 l -488.85,-983.53 -487.89,981.66 -1.06,2.02 c -7.69,14.12 -16.78,26.03 -27.02,35.42 l -2.44,2.13 c -28.11,23.11 -61.43,34.82 -99.04,34.82 -38.35,0 -73,-13.23 -100.18,-38.24 -28.63,-26.32 -43.77,-60.55 -43.77,-98.97 0,-19.9 3.5,-38.02 10.41,-53.86 l 0.62,-1.43 623.27,-1250 c 6.03,-12.64 15.1,-24.56 26.86,-35.36 26.3,-24.23 60.97,-37.04 100.24,-37.04 40.68,0 73.93,11.61 98.84,34.52 11.84,10.89 21.35,23.66 27.96,37.32 l 622.95,1249.38 c 8.63,17.43 12.99,36.43 12.99,56.47 0,39.85 -15.78,74.66 -45.7,100.72" /><path
         id="path22"
         style="fill:#ffffff;fill-opacity:1;fill-rule:nonzero;stroke:none"
         d="m 9773.64,2015.41 c -61.77,116.44 -140.62,197.06 -254.38,240.29 -88.62,33.68 -196.96,62.71 -349.53,33.34 -170.38,-32.82 -304.35,-160.58 -354.3,-299.06 -40.75,-112.99 -38.16,-153.83 -40.3,-272.94 z m 29.67,-564.8 c 22.46,-5.24 65.89,-19.95 91.85,-75.9 65.68,-130.56 -113.29,-279.73 -386.83,-368.98 -217.55,-70.992 -482.62,-8.671 -652.28,112.51 -170.13,121.52 -250.61,228.19 -314.36,423.09 -74.23,226.97 -24.75,460.06 48.25,591.51 91.42,164.62 231.35,318.63 454.96,401.14 207.23,76.46 430.04,43.23 624.62,-56.75 233.72,-120.09 367.78,-315.4 400.58,-503.17 7.6,-43.42 9.8,-97.24 -3.7,-111.43 -15.6,-16.36 -37.5,-49.37 -60,-56.19 L 8870.57,1473.67 c 78.11,-97.18 116.9,-135.73 219.24,-178.32 182.91,-76.11 319.22,-35.73 394.03,-7.99 76.81,28.48 121.46,63.45 165.76,95.69 88.1,64.12 101.51,69.82 126.65,70.63" /><path
         id="path24"
         style="fill:#ffffff;fill-opacity:1;fill-rule:nonzero;stroke:none"
         d="m 10940.1,1226.35 c -150,0 -274.8,51.88 -381.5,158.6 -106.7,106.68 -158.6,231.01 -158.6,380.11 0,149.98 51.9,274.76 158.5,381.32 106.7,105.9 231.5,157.37 381.6,157.37 150,0 274.9,-51.48 381.5,-157.23 105.8,-105.8 157.2,-230.58 157.2,-381.46 0,-150 -51.4,-274.33 -157.2,-380.12 -106.7,-106.71 -231.5,-158.59 -381.5,-158.59 z m 571.3,1108.63 c -157.1,156.98 -349.3,236.58 -571.3,236.58 -222.1,0 -414.3,-79.6 -571.2,-236.47 -157,-156.11 -236.7,-347.89 -236.7,-570.03 0,-221.21 79.6,-412.95 236.7,-570.03 157,-156.02 349.1,-235.132 571.2,-235.132 202.2,0 382.9,68.592 538.7,204.202 V 999.059 c 0,-81.719 -35.7,-166.43 -106.1,-251.821 -117.3,-116.539 -254.8,-173.187 -420.4,-173.187 -81.5,0 -158.3,14.469 -228.1,42.988 -69.7,28.43 -134.5,72.34 -192.6,130.481 -40.6,40.57 -75.5,86.242 -103.6,135.781 -7.9,15.461 -17.6,28.418 -28.8,38.558 -26.3,25.68 -59.1,39.243 -95.2,39.243 -36.5,0 -69.3,-13.481 -94.9,-38.993 -25.5,-25.519 -39,-58.328 -39,-94.91 0,-24.91 7.2,-50.008 21.3,-74.597 38.3,-69.672 89,-134.911 150.7,-193.891 168.7,-169.512 358.8,-248.473 598,-248.473 245.4,0 461.2,86.043 624.3,249.114 121.8,123.738 183.6,271.679 183.6,439.707 v 766.001 c 0,222.12 -79.7,413.9 -236.6,569.92" /><path
         id="path26"
         style="fill:#ffffff;fill-opacity:1;fill-rule:nonzero;stroke:none"
         d="m 3600.26,15.7695 c -7.06,7.2188 -10.57,16.4219 -10.57,27.6016 V 505.699 c 0,11.18 3.51,20.371 10.57,27.61 7.06,7.222 16.03,10.851 26.94,10.851 10.9,0 19.71,-3.629 26.44,-10.851 6.74,-7.239 10.11,-16.43 10.11,-27.61 V 43.3711 c 0,-11.1797 -3.37,-20.3828 -10.11,-27.6016 -6.73,-7.23044 -15.54,-10.83981 -26.44,-10.83981 -10.91,0 -19.88,3.60937 -26.94,10.83981 z m -11.05,646.6795 c -9.96,10.5 -14.91,23.321 -14.91,38.442 0,15.769 5.12,28.589 15.39,38.437 10.24,9.871 22.75,14.801 37.51,14.801 14.09,0 26.28,-4.93 36.55,-14.801 10.25,-9.848 15.39,-22.668 15.39,-38.437 0,-15.121 -5.14,-27.942 -15.39,-38.442 -10.27,-10.527 -22.77,-15.777 -37.52,-15.777 -14.75,0 -27.09,5.25 -37.02,15.777" /><path
         id="path28"
         style="fill:#ffffff;fill-opacity:1;fill-rule:nonzero;stroke:none"
         d="m 4194.17,520.488 c 36.22,-19.718 64.59,-48.468 85.12,-86.258 20.51,-37.8 30.77,-82.968 30.77,-135.539 V 42.3789 c 0,-10.5078 -3.53,-19.3906 -10.57,-26.6094 -7.06,-7.23044 -15.72,-10.83981 -25.97,-10.83981 -10.91,0 -19.88,3.60937 -26.93,10.83981 -7.06,7.2188 -10.58,16.1016 -10.58,26.6094 V 298.691 c 0,58.489 -15.87,103.008 -47.61,133.579 -31.74,30.558 -73.26,45.832 -124.56,45.832 -31.42,0 -59.79,-6.25 -85.11,-18.731 -25.35,-12.48 -45.37,-29.75 -60.12,-51.75 -14.76,-22.019 -22.11,-46.5 -22.11,-73.441 V 42.3789 c 0,-11.168 -3.37,-20.1992 -10.11,-27.0976 -6.73,-6.91021 -15.55,-10.35161 -26.45,-10.35161 -10.91,0 -19.88,3.4414 -26.93,10.35161 -7.06,6.8984 -10.58,15.9296 -10.58,27.0976 V 505.699 c 0,11.18 3.52,20.371 10.58,27.61 7.05,7.222 16.02,10.851 26.93,10.851 10.9,0 19.72,-3.629 26.45,-10.851 6.74,-7.239 10.11,-16.43 10.11,-27.61 v -33.508 c 21.15,24.297 46.79,43.368 76.94,57.168 30.13,13.801 62.83,20.711 98.1,20.711 45.52,0 86.4,-9.859 122.63,-29.582" /><path
         id="path30"
         style="fill:#ffffff;fill-opacity:1;fill-rule:nonzero;stroke:none"
         d="m 4700.55,69.9883 c 6.4,-7.2383 9.62,-16.4297 9.62,-27.6094 0,-10.5078 -3.85,-19.3906 -11.55,-26.6094 -7.69,-7.23044 -17.31,-10.83981 -28.85,-10.83981 h -20.2 c -33.99,0 -64.44,8.37891 -91.37,25.12891 -26.93,16.7617 -47.94,39.4414 -63,68.0195 -15.07,28.5939 -22.6,60.9529 -22.6,97.1129 v 263.2 h -62.52 c -10.26,0 -18.44,3.109 -24.52,9.359 -6.1,6.238 -9.14,13.961 -9.14,23.172 0,9.848 3.04,17.898 9.14,24.148 6.08,6.231 14.26,9.371 24.52,9.371 h 62.52 V 677.23 c 0,11.168 3.37,20.36 10.1,27.598 6.73,7.223 15.54,10.844 26.45,10.844 10.89,0 19.86,-3.621 26.93,-10.844 7.05,-7.238 10.58,-16.43 10.58,-27.598 V 524.441 h 108.68 c 10.25,0 18.43,-3.14 24.53,-9.371 6.08,-6.25 9.14,-14.3 9.14,-24.148 0,-9.211 -3.06,-16.934 -9.14,-23.172 -6.1,-6.25 -14.28,-9.359 -24.53,-9.359 h -108.68 v -263.2 c 0,-33.519 9.62,-60.972 28.85,-82.312 19.24,-21.3673 43.91,-32.0509 74.06,-32.0509 h 25.97 c 10.25,0 18.59,-3.6093 25.01,-10.8398" /><path
         id="path32"
         style="fill:#ffffff;fill-opacity:1;fill-rule:nonzero;stroke:none"
         d="m 4903.49,434.719 c -32.07,-30.887 -51.62,-71.629 -58.67,-122.231 h 352.02 c -5.14,50.602 -23.08,91.344 -53.86,122.231 -30.78,30.89 -70.21,46.34 -118.31,46.34 -48.73,0 -89.12,-15.45 -121.18,-46.34 z m 247.18,80.351 c 36.55,-22.679 64.93,-54.07 85.12,-94.14 20.2,-40.102 30.3,-85.758 30.3,-137.02 0,-10.531 -3.21,-18.898 -9.62,-25.14 -6.42,-6.258 -14.76,-9.372 -25,-9.372 h -388.58 c 5.13,-53.886 25.64,-97.597 61.56,-131.109 35.9,-33.5077 80.8,-50.2695 134.65,-50.2695 23.09,0 46.32,4.1016 69.73,12.3203 23.41,8.2188 42.16,18.5586 56.27,31.0512 8.33,6.558 16.98,9.871 25.97,9.871 7.05,0 14.1,-2.653 21.16,-7.903 8.32,-7.879 12.5,-16.7496 12.5,-26.6207 0,-8.5391 -3.53,-16.0977 -10.58,-22.668 -21.16,-18.4101 -48.08,-33.6797 -80.79,-45.832 C 5100.66,6.07031 5069.24,0 5039.1,0 c -51.3,0 -97.14,11.6602 -137.54,35 -40.39,23.3203 -71.98,55.8398 -94.73,97.59 -22.77,41.719 -34.15,88.871 -34.15,141.449 0,53.242 10.73,100.711 32.23,142.449 21.47,41.731 51.29,74.25 89.44,97.59 38.14,23.32 81.59,34.992 130.32,34.992 47.45,0 89.46,-11.332 126,-34" /><path
         id="path34"
         style="fill:#ffffff;fill-opacity:1;fill-rule:nonzero;stroke:none"
         d="m 5662.83,539.219 c 15.71,-7.239 23.57,-17.418 23.57,-30.559 0,-3.949 -0.33,-6.898 -0.96,-8.871 -2.57,-9.211 -6.59,-15.449 -12.03,-18.73 -5.46,-3.297 -12.98,-4.93 -22.6,-4.93 -5.77,0 -15.72,0.652 -29.82,1.973 -5.13,0.648 -12.83,0.976 -23.07,0.976 -48.1,0 -87.38,-13.148 -117.83,-39.43 -30.46,-26.289 -45.69,-60.468 -45.69,-102.507 V 42.3789 c 0,-11.8203 -3.21,-21.0391 -9.61,-27.5898 -6.42,-6.57816 -15.39,-9.85941 -26.93,-9.85941 -11.55,0 -20.54,3.28125 -26.94,9.85941 -6.41,6.5507 -9.62,15.7695 -9.62,27.5898 V 506.691 c 0,11.829 3.21,21.02 9.62,27.598 6.4,6.57 15.39,9.871 26.94,9.871 11.54,0 20.51,-3.301 26.93,-9.871 6.4,-6.578 9.61,-15.769 9.61,-27.598 V 463.32 c 18.59,27.602 42.32,48.95 71.18,64.071 28.85,15.121 59.94,22.679 93.29,22.679 26.94,0 48.24,-3.629 63.96,-10.851" /><path
         id="path36"
         style="fill:#ffffff;fill-opacity:1;fill-rule:nonzero;stroke:none"
         d="m 6143.73,520.488 c 36.22,-19.718 64.59,-48.468 85.12,-86.258 20.51,-37.8 30.77,-82.968 30.77,-135.539 V 42.3789 c 0,-10.5078 -3.53,-19.3906 -10.57,-26.6094 -7.06,-7.23044 -15.72,-10.83981 -25.97,-10.83981 -10.91,0 -19.88,3.60937 -26.93,10.83981 -7.06,7.2188 -10.58,16.1016 -10.58,26.6094 V 298.691 c 0,58.489 -15.87,103.008 -47.61,133.579 -31.74,30.558 -73.27,45.832 -124.56,45.832 -31.42,0 -59.79,-6.25 -85.11,-18.731 -25.35,-12.48 -45.37,-29.75 -60.12,-51.75 -14.76,-22.019 -22.12,-46.5 -22.12,-73.441 V 42.3789 c 0,-11.168 -3.37,-20.1992 -10.1,-27.0976 -6.73,-6.91021 -15.55,-10.35161 -26.45,-10.35161 -10.91,0 -19.88,3.4414 -26.93,10.35161 -7.06,6.8984 -10.58,15.9296 -10.58,27.0976 V 505.699 c 0,11.18 3.52,20.371 10.58,27.61 7.05,7.222 16.02,10.851 26.93,10.851 10.9,0 19.72,-3.629 26.45,-10.851 6.73,-7.239 10.1,-16.43 10.1,-27.61 v -33.508 c 21.16,24.297 46.8,43.368 76.94,57.168 30.14,13.801 62.84,20.711 98.11,20.711 45.52,0 86.4,-9.859 122.63,-29.582" /><path
         id="path38"
         style="fill:#ffffff;fill-opacity:1;fill-rule:nonzero;stroke:none"
         d="m 6731.86,95.6211 c 29.49,17.7379 52.74,42.2189 69.73,73.4379 16.98,31.203 25.49,66.203 25.49,104.98 0,38.781 -8.51,73.77 -25.49,104.992 -16.99,31.207 -40.24,55.848 -69.73,73.93 -29.5,18.07 -62.52,27.121 -99.06,27.121 -36.55,0 -69.73,-9.051 -99.55,-27.121 -29.82,-18.082 -53.23,-42.723 -70.22,-73.93 -16.99,-31.222 -25.48,-66.211 -25.48,-104.992 0,-38.777 8.49,-73.777 25.48,-104.98 16.99,-31.219 40.4,-55.7 70.22,-73.4379 C 6563.07,77.8789 6596.25,69 6632.8,69 c 36.54,0 69.56,8.8789 99.06,26.6211 z m 37.03,417.4689 c 40.72,-23.988 72.77,-57.012 96.18,-99.07 23.4,-42.059 35.11,-88.719 35.11,-139.981 V 42.3789 c 0,-10.5078 -3.53,-19.3906 -10.58,-26.6094 -7.07,-7.23044 -16.03,-10.83981 -26.93,-10.83981 -10.91,0 -19.89,3.4414 -26.93,10.35161 -7.07,6.8984 -10.58,15.9296 -10.58,27.0976 V 101.531 C 6802.71,69.9883 6774.18,45.1719 6739.56,27.1094 6704.93,9.01953 6666.77,0 6625.1,0 c -48.74,0 -92.81,11.9805 -132.25,35.9805 -39.43,23.9804 -70.54,56.8398 -93.29,98.5785 -22.77,41.722 -34.14,88.23 -34.14,139.48 0,51.262 11.69,97.922 35.1,139.981 23.4,42.058 55.45,75.082 96.18,99.07 40.71,23.992 86.08,35.98 136.1,35.98 50.01,0 95.36,-11.988 136.09,-35.98" /><path
         id="path40"
         style="fill:#ffffff;fill-opacity:1;fill-rule:nonzero;stroke:none"
         d="m 7271.42,69.9883 c 6.4,-7.2383 9.62,-16.4297 9.62,-27.6094 0,-10.5078 -3.84,-19.3906 -11.54,-26.6094 -7.69,-7.23044 -17.31,-10.83981 -28.85,-10.83981 h -20.2 c -33.99,0 -64.44,8.37891 -91.38,25.12891 -26.93,16.7617 -47.94,39.4414 -63,68.0195 -15.06,28.5939 -22.6,60.9529 -22.6,97.1129 v 263.2 h -62.51 c -10.27,0 -18.44,3.109 -24.53,9.359 -6.1,6.238 -9.14,13.961 -9.14,23.172 0,9.848 3.04,17.898 9.14,24.148 6.09,6.231 14.26,9.371 24.53,9.371 h 62.51 V 677.23 c 0,11.168 3.37,20.36 10.1,27.598 6.74,7.223 15.54,10.844 26.45,10.844 10.9,0 19.87,-3.621 26.93,-10.844 7.05,-7.238 10.58,-16.43 10.58,-27.598 V 524.441 h 108.68 c 10.26,0 18.43,-3.14 24.53,-9.371 6.09,-6.25 9.14,-14.3 9.14,-24.148 0,-9.211 -3.05,-16.934 -9.14,-23.172 -6.1,-6.25 -14.27,-9.359 -24.53,-9.359 h -108.68 v -263.2 c 0,-33.519 9.62,-60.972 28.86,-82.312 19.24,-21.3673 43.91,-32.0509 74.06,-32.0509 h 25.97 c 10.25,0 18.58,-3.6093 25,-10.8398" /><path
         id="path42"
         style="fill:#ffffff;fill-opacity:1;fill-rule:nonzero;stroke:none"
         d="m 7397.41,15.7695 c -7.06,7.2188 -10.57,16.4219 -10.57,27.6016 V 505.699 c 0,11.18 3.51,20.371 10.57,27.61 7.05,7.222 16.02,10.851 26.94,10.851 10.89,0 19.71,-3.629 26.44,-10.851 6.73,-7.239 10.1,-16.43 10.1,-27.61 V 43.3711 c 0,-11.1797 -3.37,-20.3828 -10.1,-27.6016 -6.73,-7.23044 -15.55,-10.83981 -26.44,-10.83981 -10.92,0 -19.89,3.60937 -26.94,10.83981 z m -11.06,646.6795 c -9.94,10.5 -14.9,23.321 -14.9,38.442 0,15.769 5.12,28.589 15.39,38.437 10.24,9.871 22.75,14.801 37.51,14.801 14.09,0 26.28,-4.93 36.54,-14.801 10.25,-9.848 15.39,-22.668 15.39,-38.437 0,-15.121 -5.14,-27.942 -15.39,-38.442 -10.26,-10.527 -22.76,-15.777 -37.51,-15.777 -14.76,0 -27.09,5.25 -37.03,15.777" /><path
         id="path44"
         style="fill:#ffffff;fill-opacity:1;fill-rule:nonzero;stroke:none"
         d="m 7959.09,95.6211 c 29.48,17.7379 52.59,42.2189 69.26,73.4379 16.66,31.203 25,66.203 25,104.98 0,39.441 -8.34,74.762 -25,105.981 -16.67,31.21 -39.78,55.691 -69.26,73.441 -29.49,17.738 -62.84,26.621 -100.02,26.621 -36.54,0 -69.72,-8.883 -99.54,-26.621 -29.82,-17.75 -53.23,-42.231 -70.21,-73.441 -17,-31.219 -25.49,-66.54 -25.49,-105.981 0,-38.777 8.49,-73.777 25.49,-104.98 16.98,-31.219 40.39,-55.7 70.21,-73.4379 29.82,-17.7422 63,-26.6211 99.54,-26.6211 37.18,0 70.53,8.8789 100.02,26.6211 z M 7722.01,35.4883 c -40.72,23.6523 -72.61,56.3515 -95.69,98.0817 -23.09,41.731 -34.63,88.551 -34.63,140.469 0,51.91 11.54,98.91 34.63,140.973 23.08,42.047 54.97,74.918 95.69,98.578 40.72,23.66 86.4,35.48 137.06,35.48 50.65,0 96.19,-11.82 136.58,-35.48 40.39,-23.66 72.29,-56.531 95.69,-98.578 23.41,-42.063 35.12,-89.063 35.12,-140.973 0,-51.918 -11.54,-98.738 -34.62,-140.469 -23.1,-41.7302 -54.99,-74.4294 -95.71,-98.0817 C 7955.4,11.8203 7909.72,0 7859.07,0 c -50.66,0 -96.34,11.8203 -137.06,35.4883" /><path
         id="path46"
         style="fill:#ffffff;fill-opacity:1;fill-rule:nonzero;stroke:none"
         d="m 8612.64,520.488 c 36.22,-19.718 64.59,-48.468 85.11,-86.258 20.51,-37.8 30.78,-82.968 30.78,-135.539 V 42.3789 c 0,-10.5078 -3.53,-19.3906 -10.58,-26.6094 -7.07,-7.23044 -15.72,-10.83981 -25.97,-10.83981 -10.91,0 -19.89,3.60937 -26.93,10.83981 -7.06,7.2188 -10.58,16.1016 -10.58,26.6094 V 298.691 c 0,58.489 -15.88,103.008 -47.6,133.579 -31.75,30.558 -73.27,45.832 -124.56,45.832 -31.43,0 -59.8,-6.25 -85.12,-18.731 -25.34,-12.48 -45.37,-29.75 -60.12,-51.75 -14.75,-22.019 -22.12,-46.5 -22.12,-73.441 V 42.3789 c 0,-11.168 -3.36,-20.1992 -10.1,-27.0976 -6.72,-6.91021 -15.55,-10.35161 -26.45,-10.35161 -10.91,0 -19.87,3.4414 -26.92,10.35161 -7.07,6.8984 -10.58,15.9296 -10.58,27.0976 V 505.699 c 0,11.18 3.51,20.371 10.58,27.61 7.05,7.222 16.01,10.851 26.92,10.851 10.9,0 19.73,-3.629 26.45,-10.851 6.74,-7.239 10.1,-16.43 10.1,-27.61 v -33.508 c 21.16,24.297 46.81,43.368 76.95,57.168 30.13,13.801 62.83,20.711 98.1,20.711 45.52,0 86.4,-9.859 122.64,-29.582" /><path
         id="path48"
         style="fill:#ffffff;fill-opacity:1;fill-rule:nonzero;stroke:none"
         d="m 9200.77,95.6211 c 29.47,17.7379 52.73,42.2189 69.72,73.4379 16.99,31.203 25.49,66.203 25.49,104.98 0,38.781 -8.5,73.77 -25.49,104.992 -16.99,31.207 -40.25,55.848 -69.72,73.93 -29.5,18.07 -62.52,27.121 -99.08,27.121 -36.54,0 -69.73,-9.051 -99.54,-27.121 -29.82,-18.082 -53.23,-42.723 -70.22,-73.93 -16.99,-31.222 -25.47,-66.211 -25.47,-104.992 0,-38.777 8.48,-73.777 25.47,-104.98 16.99,-31.219 40.4,-55.7 70.22,-73.4379 29.81,-17.7422 63,-26.6211 99.54,-26.6211 36.56,0 69.58,8.8789 99.08,26.6211 z m 37.02,417.4689 c 40.72,-23.988 72.77,-57.012 96.19,-99.07 23.39,-42.059 35.1,-88.719 35.1,-139.981 V 42.3789 c 0,-10.5078 -3.53,-19.3906 -10.58,-26.6094 -7.06,-7.23044 -16.04,-10.83981 -26.94,-10.83981 -10.91,0 -19.87,3.4414 -26.92,10.35161 -7.06,6.8984 -10.58,15.9296 -10.58,27.0976 V 101.531 C 9271.6,69.9883 9243.09,45.1719 9208.46,27.1094 9173.84,9.01953 9135.68,0 9094,0 c -48.74,0 -92.81,11.9805 -132.25,35.9805 -39.43,23.9804 -70.54,56.8398 -93.29,98.5785 -22.78,41.722 -34.15,88.23 -34.15,139.48 0,51.262 11.7,97.922 35.1,139.981 23.41,42.058 55.46,75.082 96.2,99.07 40.7,23.992 86.07,35.98 136.08,35.98 50.03,0 95.38,-11.988 136.1,-35.98" /><path
         id="path50"
         style="fill:#ffffff;fill-opacity:1;fill-rule:nonzero;stroke:none"
         d="m 9501.31,52.7383 c -24.69,31.8711 -37.02,72.7817 -37.02,122.7307 v 561.89 c 0,11.172 3.51,20.211 10.58,27.11 7.04,6.902 15.7,10.351 25.96,10.351 10.9,0 19.72,-3.449 26.46,-10.351 6.72,-6.899 10.09,-15.938 10.09,-27.11 v -561.89 c 0,-28.258 5.61,-51.258 16.84,-69.008 11.2,-17.7422 25.49,-26.6094 42.79,-26.6094 h 24.05 c 9.62,0 17.31,-3.4532 23.08,-10.3516 5.78,-6.8984 8.66,-15.9414 8.66,-27.1211 0,-11.168 -4.01,-20.1992 -12.03,-27.0976 -8.02,-6.91021 -18.44,-10.35161 -31.25,-10.35161 h -12.51 c -39.11,0 -71.01,15.92191 -95.7,47.80861" /><path
         id="path52"
         style="fill:#ffffff;fill-opacity:1;fill-rule:evenodd;stroke:none"
         d="m 387.23,2232.38 c -7.539,8.44 -15.859,17.67 -23.367,26.77 -7.109,8.44 -16.871,18.77 -15.629,31.14 47.438,-0.77 88.016,-25.06 124.805,-46.77 56.992,-33.73 258.477,-192.16 453.426,-559.93 175.405,-331.12 313.595,-787.828 331.245,-852.051 12.14,-43.598 22.51,-88.59 45.65,-126.711 0,0 0.42,-0.027 1.81,2.133 7.35,11.379 14.94,28.359 20.58,43.301 20.9,55.429 89.26,342.918 203.16,621.088 0.69,1.7 1.35,3.37 2.13,5.07 49.13,130.3 105.26,263.77 164.26,375.3 101.79,191.93 211.28,331.13 301.11,425.57 -14.05,5.64 -29.45,-0.66 -42.05,-4.83 -93.2,-31.38 -158.2,-97.15 -216.2,-162.81 -49.82,-56.21 -99.3,-118.73 -134.82,-189.33 -12.03,-23.95 -18.76,-50.72 -35.75,-72.42 -10.56,8.89 -12.49,25.41 -14.39,38.91 -17.21,119.08 17.65,232.29 53.39,310.9 64.33,141.43 173.17,256.46 335.42,302.11 54.97,15.39 113.55,27.32 172.81,39 81.63,16.1 162.91,32.95 243.12,53.72 C 2114.76,2793 1743.11,2985.2 1326.46,2985.2 593.879,2985.2 0,2391.32 0,1658.74 0,976.871 514.527,415.27 1176.49,340.762 1142.85,502.07 1055.29,919.84 917.367,1313.12 775.152,1718.11 623.574,1965.7 387.23,2232.38" /><path
         id="path54"
         style="fill:#ffffff;fill-opacity:1;fill-rule:evenodd;stroke:none"
         d="m 2445.03,2371.96 c -0.43,-1.87 -0.94,-3.64 -1.35,-5.53 -22.25,-101.55 -19.11,-237.15 -44.62,-334.41 -12.72,-48.56 -35.08,-88.83 -63.52,-124.92 -84.68,-106.9 -193.4,-181.91 -347.77,-219.56 -49.93,-12.15 -104.25,-15.52 -153.81,-34.54 -11.49,-4.26 -24.07,-18.42 -35.32,-34.17 -32.93,-73.98 -64.3,-152.58 -94.09,-237.58 -128.41,-365.87 -220.49,-796.27 -261.65,-995.738 -2.64,-18.203 -4.96,-34.453 -7.03,-48.711 681.4,55.64 1217.06,626.199 1217.06,1321.939 0,262.54 -76.3,507.26 -207.9,713.22" /></g></g></svg>